<svg xmlns="http://www.w3.org/2000/svg" width="824.2" height="824.201" viewBox="0 0 824.2 824.201"><path d="M824.2 715.7V216.3c-22.8 26.4-57.3 50.3-102.3 70.4-73.2 32.7-167.5 52.4-268.801 56.6v24.3c0 13.8-11.199 25-25 25h-32c-13.8 0-25-11.2-25-25v-24.2c-101.399-4.2-195.6-23.9-268.8-56.6-45-20.1-79.5-44-102.3-70.4v499.4c0 13.8 11.2 25 25 25h774.3c13.701-.1 24.901-11.3 24.901-25.1z"/><path d="M514.7 83.4H309.3c-41.399 0-75 33.6-75 75v28.1H14.6c3.6 5.1 7.8 10.2 12.6 15.3 20.3 21.4 49.6 40.8 87.3 57.6 79.2 35.4 184.9 54.9 297.6 54.9 112.7 0 218.301-19.5 297.601-54.9 37.6-16.8 67-36.2 87.3-57.6 4.8-5 9-10.1 12.6-15.3H589.7v-28.1c0-41.3-33.6-75-75-75zM284.3 186.5v-28.1c0-13.8 11.2-25 25-25h205.4c13.8 0 25 11.2 25 25v28.1H284.3z"/></svg>