<?xml version="1.0" encoding="iso-8859-1"?>
<!-- Generator: Adobe Illustrator 16.0.0, SVG Export Plug-In . SVG Version: 6.00 Build 0)  -->
<!DOCTYPE svg PUBLIC "-//W3C//DTD SVG 1.1//EN" "http://www.w3.org/Graphics/SVG/1.1/DTD/svg11.dtd">
<svg version="1.1" id="Capa_1" xmlns="http://www.w3.org/2000/svg" xmlns:xlink="http://www.w3.org/1999/xlink" x="0px" y="0px"
	 width="867.801px" height="867.801px" viewBox="0 0 867.801 867.801" style="enable-background:new 0 0 867.801 867.801;"
	 xml:space="preserve">
<g>
	<g>
		<path d="M0,433.9c0,239.6,194.3,433.901,433.9,433.901S867.801,673.5,867.801,433.9S673.5,0,433.9,0S0,194.2,0,433.9z M289.5,92.1
			c45.7-19.3,94.301-29.2,144.4-29.2c50.1,0,98.6,9.8,144.401,29.2c44.199,18.7,83.799,45.4,117.898,79.5
			c34.102,34.1,60.801,73.7,79.5,117.9C795,335.2,804.9,383.8,804.9,433.9c0,50.1-9.801,98.6-29.201,144.401
			C757,622.5,730.301,662.1,696.199,696.199c-34.1,34.102-73.699,60.801-117.898,79.5C532.6,795,484,804.9,433.9,804.9
			c-50.1,0-98.6-9.801-144.4-29.201C245.3,757,205.7,730.301,171.6,696.199c-34.1-34.1-60.8-73.699-79.5-117.898
			C72.8,532.6,62.9,484,62.9,433.9c0-50.1,9.8-98.6,29.2-144.4c18.7-44.2,45.4-83.8,79.5-117.9C205.7,137.5,245.4,110.8,289.5,92.1z
			"/>
		<path d="M433.9,774.801c91.1,0,176.7-35.5,241.1-99.801c64.4-64.4,99.801-150,99.801-241.1c0-91.1-35.5-176.7-99.801-241.1
			C610.6,128.4,525,93,433.9,93c-91.1,0-176.7,35.5-241.1,99.8C128.4,257.2,93,342.8,93,433.9c0,91.1,35.5,176.7,99.8,241.1
			C257.2,739.301,342.8,774.801,433.9,774.801z M411.4,382.3v-148c0-12.4,10.1-22.5,22.5-22.5c12.401,0,22.5,10.1,22.5,22.5v148
			c13,5.699,23.4,16.1,29.1,29.1h193c12.4,0,22.5,10.1,22.5,22.5c0,12.401-10.1,22.5-22.5,22.5h-193
			c-8.699,19.9-28.5,33.799-51.6,33.799c-31.1,0-56.2-25.199-56.2-56.299C377.7,410.8,391.5,391,411.4,382.3z"/>
	</g>
</g>
<g>
</g>
<g>
</g>
<g>
</g>
<g>
</g>
<g>
</g>
<g>
</g>
<g>
</g>
<g>
</g>
<g>
</g>
<g>
</g>
<g>
</g>
<g>
</g>
<g>
</g>
<g>
</g>
<g>
</g>
</svg>
